<svg xmlns="http://www.w3.org/2000/svg" viewBox="0 0 220 140" role="img" aria-labelledby="title desc">
  <title id="title">Happy Celebration logo</title>
  <desc id="desc">A dark blue Happy Celebration monogram and brand wordmark.</desc>
  <defs>
    <linearGradient id="grad" x1="0%" y1="0%" x2="100%" y2="100%">
      <stop offset="0%" stop-color="#1f2937" />
      <stop offset="100%" stop-color="#111827" />
    </linearGradient>
    <filter id="glow" x="-20%" y="-20%" width="140%" height="140%">
      <feGaussianBlur stdDeviation="2.5" result="blur" />
      <feMerge>
        <feMergeNode in="blur" />
        <feMergeNode in="SourceGraphic" />
      </feMerge>
    </filter>
  </defs>
  <rect width="220" height="140" rx="26" fill="#e2e8f0" />
  <g transform="translate(24,18) scale(0.9)">
    <path d="M27 78V24h13v11.2c2.4-2 5.3-3.6 8.8-4.4 3.8-0.9 7.8-1.2 11.4-1.2 9.2 0 16.9 3.9 22.2 11.2 5.4 6.8 8.3 15.5 8.3 24.4 0 9.8-3.5 19.4-10 26.3-5.6 5.6-13.3 8.9-22 8.9-3.6 0-7-0.4-10.2-1.1V78H27Zm13.5-24.1h6c7.2 0 13.7-2.7 18.7-7.6 4.2-4.2 6.7-9.7 6.7-15.5 0-5.9-2.1-11.5-6.2-15.6-4.1-4.1-9.9-6.4-16.8-6.4-2.6 0-5.3 0.3-7.8 1V53.9Zm49.8 24.1V24h14.4v11.3c3.8-4.6 9-7.3 15.1-7.3 12.7 0 23.2 10.3 23.2 23 0 12.8-10.4 23.2-23.2 23.2-6.6 0-12.2-2.7-16.3-7V78H90.3Zm14-11.3c4.8 0 9.5-2.1 13-5.8 3.8-4.1 5.8-9.4 5.8-15.1 0-5.7-2-11-5.7-15.2-3.5-3.7-8.2-5.8-13.4-5.8-5.2 0-10 2.1-13.5 5.8-3.7 4-5.8 9.2-5.8 14.8 0 5.8 2 11.2 5.8 15.3 3.5 3.8 8.3 5.9 13.6 5.9Z" fill="url(#grad)" filter="url(#glow)" />
  </g>
  <text x="110" y="125" text-anchor="middle" fill="#102a43" font-family="Inter, Arial, sans-serif" font-size="18" font-weight="800" letter-spacing="0.2em">HAPPY CELEBRATION</text>
</svg>