<svg xmlns="http://www.w3.org/2000/svg" viewBox="0 0 120 120" role="img" aria-labelledby="logoTitle logoDesc">
  <title id="logoTitle">Happy Celebration logo</title>
  <desc id="logoDesc">A stylized HC monogram with celebration ring background</desc>
  <defs>
    <linearGradient id="glow" x1="0" y1="0" x2="1" y2="1">
      <stop offset="0%" stop-color="#f43f5e" />
      <stop offset="100%" stop-color="#2563eb" />
    </linearGradient>
  </defs>
  <circle cx="60" cy="60" r="56" fill="#111827" stroke="url(#glow)" stroke-width="8" opacity="0.95" />
  <path d="M40 82V39h18c5.5 0 10.5 2.4 14 6.5 3.2 3.7 4.9 8.7 4.9 13.7 0 5.4-1.9 10.1-6 13.8-3.3 3-7.6 4.6-12.4 4.6H40Zm12.5-25.2H52v16.5h8.6c4.4 0 8.4-1.6 11.3-4.6 2.6-2.8 4.1-6.6 4.1-10.5 0-3.9-1.4-7.7-4-10.5-2.7-2.9-6.7-4.6-11.5-4.6Zm32.8 25.2V39h11.4v16.3c3.2-4 8-6.7 13.4-6.7 10.3 0 18.8 8.2 18.8 18.4 0 10.3-8.4 18.5-18.8 18.5-5.4 0-10.2-2.6-13.4-6.6V82H85.3Zm11.4-11.5c3.1 0 5.9-1.4 7.9-3.6 2.1-2.3 3.3-5.4 3.3-8.7 0-3.4-1.2-6.5-3.4-8.8-2-2.2-4.8-3.6-8-3.6-3.2 0-6.1 1.3-8.2 3.6-2.4 2.8-3.8 6.4-3.8 10 0 3.6 1.4 7.2 3.8 10 2.1 2.4 5 3.7 8.3 3.7Z" fill="url(#glow)" />
</svg>
