<svg xmlns="http://www.w3.org/2000/svg" viewBox="0 0 240 140"><rect width="240" height="140" rx="28" fill="#e2e8f0"/><path d="M36 92V28h16v13.5c3-2.3 6.5-4.2 10.8-5.1 4.4-1 9.1-1.4 13.3-1.4 10.7 0 19.6 4.5 25.8 12.8 6.6 8.2 10.2 18.8 10.2 29.8 0 11.9-4.4 23.6-12.4 32.1-6.9 7.2-16.4 11.3-27.4 11.3-4.6 0-9.1-0.5-13.2-1.6V92H36Zm15-29.6h6.8c8.4 0 16-3.1 21.8-8.5 5-4.7 8-11 8-18.2 0-7.1-2.8-13.9-7.9-18.8-5.1-5-12.3-8.1-20.9-8.1-3.3 0-6.6 0.4-9.7 1.2V62.4Zm53.5 29.6V28h16.5v13.4c4.4-5 10.4-7.9 17.5-7.9 14.6 0 26.6 12 26.6 26.8 0 14.9-12 26.9-26.6 26.9-7.6 0-14.1-3.2-18.9-8.4V92H104.5Zm16.2-11.4c5.5 0 11-2.4 15.1-6.8 4.4-4.7 6.7-10.9 6.7-17.6 0-6.8-2.3-13.1-6.7-17.8-4.3-4.4-9.9-6.8-16.2-6.8-6.3 0-12 2.4-16.4 6.9-4.7 4.8-7.1 11.2-7.1 18.3 0 7.1 2.5 13.5 7.1 18.4 4.3 4.6 10 7 16.6 7Z" fill="#1f2937"/><path d="M146 28h10.1v40.3c3.9-4.3 8.7-7.5 14.1-9.4 6.6-2.2 13.7-2.4 20.2-0.3 5.7 1.8 10.8 5.5 14.6 10.4 4.1 5.5 6.3 12.2 6.3 19.2 0 7.8-2.6 15.4-7.3 21.3-4.1 5-9.8 8.7-16.5 10.7-6.4 1.9-13.2 1.9-19.8 0.4-4.5-1-8.6-2.9-12.1-5.7V28Zm10.1 12.9v18.3c5.7 3.4 12.3 4.7 18.7 3.8 4.8-0.7 9.2-3.1 12.5-6.6 3.7-3.8 5.7-8.8 5.7-14.2 0-5.1-1.9-9.9-5.4-13.8-3.5-3.9-8.1-6.2-13.2-6.2-5.7 0-11.2 2.4-15.8 6.5Z" fill="#1f2937"/></svg>